<?xml version="1.0" encoding="utf-8"?>
<!-- Generator: Adobe Illustrator 21.1.0, SVG Export Plug-In . SVG Version: 6.00 Build 0)  -->
<svg version="1.1" id="Layer_1" xmlns="http://www.w3.org/2000/svg" xmlns:xlink="http://www.w3.org/1999/xlink" x="0px" y="0px"
	 viewBox="0 0 384 384" style="enable-background:new 0 0 384 384;" xml:space="preserve">
<style type="text/css">
	.st0 {
		fill:#3C2615;
	}
	@media (prefers-color-scheme: dark) {
		.st0 {
			fill: white;
		}
	}
</style>
<g>
	<path class="st0" d="M203.2,79.5c0,6.2-5,11.3-11.2,11.3c-6.2,0-11.3-5-11.3-11.3s5-11.3,11.3-11.3
		C198.2,68.3,203.2,73.3,203.2,79.5L203.2,79.5z M203.2,79.5"/>
	<path class="st0" d="M293.3,79.5c0,6.2-5,11.3-11.3,11.3c-6.2,0-11.3-5-11.3-11.3s5-11.3,11.3-11.3
		C288.2,68.3,293.3,73.3,293.3,79.5L293.3,79.5z M293.3,79.5"/>
	<path class="st0" d="M248.3,57c0,6.2-5,11.3-11.3,11.3s-11.3-5-11.3-11.3s5-11.3,11.3-11.3S248.3,50.8,248.3,57L248.3,57z
		 M248.3,57"/>
	<path class="st0" d="M158.3,57c0,6.2-5,11.3-11.3,11.3s-11.3-5-11.3-11.3s5-11.3,11.3-11.3S158.3,50.8,158.3,57L158.3,57z
		 M158.3,57"/>
	<path class="st0" d="M113.2,79.5c0,6.2-5,11.3-11.3,11.3s-11.3-5-11.3-11.3s5-11.3,11.3-11.3S113.2,73.3,113.2,79.5L113.2,79.5z
		 M113.2,79.5"/>
	<path class="st0" d="M384,225.8c0-21.2-14.7-39-34.5-43.8v-23.8c6.2,0,11.3-5,11.3-11.3v-23.3C360.8,55.5,305.2,0,237,0h-90
		C78.8,0,23.3,55.5,23.3,123.8V147c0,6.2,5,11.3,11.3,11.3V182C14.7,186.7,0,204.6,0,225.8s14.7,39,34.5,43.8v23.8
		c-6.2,0-11.3,5-11.3,11.3v23.3c0,31,25.2,56.3,56.2,56.3h225c31,0,56.3-25.2,56.3-56.3v-23.3c0-6-4.6-10.8-10.5-11.2v-24
		C369.6,264.3,384,246.7,384,225.8L384,225.8z M293.3,293.3v-22.5h34.5v22.5H293.3z M361.5,225.8c0,12.4-10.1,22.5-22.5,22.5h-45.8
		v-45H339C351.4,203.3,361.5,213.3,361.5,225.8L361.5,225.8z M45.8,123.8C45.8,67.9,91.2,22.5,147,22.5h90
		c55.8,0,101.3,45.4,101.3,101.3v12H45.8V123.8z M327,158.3v22.5h-45c-6.2,0-11.3,5-11.3,11.3v112.5c0,6.2-5,11.3-11.3,11.3
		s-11.3-5-11.3-11.3V192c0-6.2-5-11.3-11.3-11.3h-67.5c-6.2,0-11.3,5-11.3,11.3c0,6.2-5,11.2-11.3,11.2c-6.2,0-11.3-5-11.3-11.2
		c0-6.2-5-11.3-11.3-11.3H57v-22.5H327z M22.5,225.8c0-12.4,10.1-22.5,22.5-22.5h70.2c4.6,13.1,17.2,22.5,31.8,22.5
		c14.7,0,27.2-9.4,31.8-22.5h46.9v45H45C32.6,248.3,22.5,238.2,22.5,225.8L22.5,225.8z M57,270.8h168.8v22.5H57V270.8z M338.3,327.8
		c0,18.6-15.1,33.8-33.8,33.8h-225c-18.6,0-33.7-15.1-33.7-33.8v-12h181.9c4.6,13.1,17.1,22.5,31.8,22.5c14.7,0,27.2-9.4,31.8-22.5
		h46.9V327.8z M338.3,327.8"/>
</g>
</svg>
